<?xml version="1.0" encoding="UTF-8" standalone="no"?>
<!DOCTYPE svg PUBLIC "-//W3C//DTD SVG 1.1//EN"
 "http://www.w3.org/Graphics/SVG/1.1/DTD/svg11.dtd">
<!-- Generated by graphviz version 2.40.1 (20161225.0304)
 -->
<!-- Title: %0 Pages: 1 -->
<svg width="218pt" height="91pt"
 viewBox="0.00 0.00 218.01 91.40" xmlns="http://www.w3.org/2000/svg" xmlns:xlink="http://www.w3.org/1999/xlink">
<g id="graph0" class="graph" transform="scale(1 1) rotate(0) translate(4 87.4)">
<title>%0</title>
<polygon fill="#ffffff" stroke="transparent" points="-4,4 -4,-87.4 214.0113,-87.4 214.0113,4 -4,4"/>
<text text-anchor="middle" x="105.0057" y="-65" font-family="Roboto Condensed, sans-serif" font-size="16.00" fill="#000000">p&#45;retry</text>
<!-- p&#45;retry@4.4.0 -->
<g id="node1" class="node">
<title>p&#45;retry@4.4.0</title>
<path fill="none" stroke="#000000" d="M61.6158,-37.3011C61.6158,-37.3011 6.4396,-37.3011 6.4396,-37.3011 3.206,-37.3011 -.0277,-34.0674 -.0277,-30.8337 -.0277,-30.8337 -.0277,-24.3663 -.0277,-24.3663 -.0277,-21.1326 3.206,-17.8989 6.4396,-17.8989 6.4396,-17.8989 61.6158,-17.8989 61.6158,-17.8989 64.8494,-17.8989 68.0831,-21.1326 68.0831,-24.3663 68.0831,-24.3663 68.0831,-30.8337 68.0831,-30.8337 68.0831,-34.0674 64.8494,-37.3011 61.6158,-37.3011"/>
<text text-anchor="middle" x="34.0277" y="-24.3" font-family="Roboto Condensed, sans-serif" font-size="11.00" fill="#000000">p&#45;retry@4.4.0</text>
</g>
<!-- @types/retry@^0.12.0 -->
<g id="node2" class="node">
<title>@types/retry@^0.12.0</title>
<path fill="none" stroke="#000000" d="M203.5219,-56.3011C203.5219,-56.3011 110.5448,-56.3011 110.5448,-56.3011 107.3111,-56.3011 104.0774,-53.0674 104.0774,-49.8337 104.0774,-49.8337 104.0774,-43.3663 104.0774,-43.3663 104.0774,-40.1326 107.3111,-36.8989 110.5448,-36.8989 110.5448,-36.8989 203.5219,-36.8989 203.5219,-36.8989 206.7556,-36.8989 209.9893,-40.1326 209.9893,-43.3663 209.9893,-43.3663 209.9893,-49.8337 209.9893,-49.8337 209.9893,-53.0674 206.7556,-56.3011 203.5219,-56.3011"/>
<text text-anchor="middle" x="157.0334" y="-43.3" font-family="Roboto Condensed, sans-serif" font-size="11.00" fill="#000000">@types/retry@^0.12.0</text>
</g>
<!-- p&#45;retry@4.4.0&#45;&gt;@types/retry@^0.12.0 -->
<g id="edge1" class="edge">
<title>p&#45;retry@4.4.0&#45;&gt;@types/retry@^0.12.0</title>
<path fill="none" stroke="#000000" d="M68.2916,-32.8926C76.3489,-34.1371 85.1877,-35.5024 94.0672,-36.874"/>
<polygon fill="#000000" stroke="#000000" points="93.6532,-40.3514 104.0703,-38.4191 94.7218,-33.4335 93.6532,-40.3514"/>
</g>
<!-- retry@0.12.0 -->
<g id="node3" class="node">
<title>retry@0.12.0</title>
<path fill="none" stroke="#000000" d="M182.9607,-19.3011C182.9607,-19.3011 131.106,-19.3011 131.106,-19.3011 127.8723,-19.3011 124.6386,-16.0674 124.6386,-12.8337 124.6386,-12.8337 124.6386,-6.3663 124.6386,-6.3663 124.6386,-3.1326 127.8723,.1011 131.106,.1011 131.106,.1011 182.9607,.1011 182.9607,.1011 186.1944,.1011 189.4281,-3.1326 189.4281,-6.3663 189.4281,-6.3663 189.4281,-12.8337 189.4281,-12.8337 189.4281,-16.0674 186.1944,-19.3011 182.9607,-19.3011"/>
<text text-anchor="middle" x="157.0334" y="-6.3" font-family="Roboto Condensed, sans-serif" font-size="11.00" fill="#000000">retry@0.12.0</text>
</g>
<!-- p&#45;retry@4.4.0&#45;&gt;retry@0.12.0 -->
<g id="edge2" class="edge">
<title>p&#45;retry@4.4.0&#45;&gt;retry@0.12.0</title>
<path fill="none" stroke="#000000" d="M68.2916,-22.586C82.6156,-20.4899 99.4098,-18.0323 114.5114,-15.8224"/>
<polygon fill="#000000" stroke="#000000" points="115.2569,-19.2507 124.6447,-14.3396 114.2433,-12.3245 115.2569,-19.2507"/>
</g>
</g>
</svg>
